<svg width="166" height="60" viewBox="0 0 166 60" fill="none" xmlns="http://www.w3.org/2000/svg">
<path fill-rule="evenodd" clip-rule="evenodd" d="M30.0002 0C30.0002 0 30.0002 0 30.0002 0C21.7933 0 14.3561 3.2954 8.9397 8.63514L30.0002 30.0323V0Z" fill="#D9D9D9"/>
<path fill-rule="evenodd" clip-rule="evenodd" d="M30 0C38.1971 2.03991e-06 45.6263 3.28754 51.0411 8.61603L30 30.0323V0Z" fill="#246895"/>
<path fill-rule="evenodd" clip-rule="evenodd" d="M59.9999 30.0337C59.9999 30.0225 59.9999 30.0114 59.9999 30.0003C59.9999 21.6295 56.5716 14.0595 51.0424 8.61768L30 30.0338L59.9999 30.0337Z" fill="#DB8D91"/>
<path fill-rule="evenodd" clip-rule="evenodd" d="M59.9999 30.0006C59.9998 38.3797 56.5645 45.9565 51.0255 51.3994L30 30.0005L59.9999 30.0006Z" fill="#84C2E7"/>
<path fill-rule="evenodd" clip-rule="evenodd" d="M8.95531 51.3802C3.42743 45.9386 0 38.3695 0 29.9998C0 29.9998 1.85992e-10 29.9998 1.85992e-10 29.9997L29.9996 29.9995L8.95531 51.3802Z" fill="#AD404B"/>
<path fill-rule="evenodd" clip-rule="evenodd" d="M29.9999 60C21.8012 60 14.3706 56.7111 8.95557 51.3807L29.9999 30L29.9999 60Z" fill="#A4C4A4"/>
<path fill-rule="evenodd" clip-rule="evenodd" d="M30 60L30 30L51.0249 51.3998C45.6115 56.719 38.1889 60 30 60Z" fill="#6AA79D"/>
<path fill-rule="evenodd" clip-rule="evenodd" d="M29.9999 0C29.9999 0 29.9999 0 29.9999 0C21.7931 0 14.3559 3.2954 8.93945 8.63514L29.9999 30.0323V0Z" fill="#7BAECC"/>
<g filter="url(#filter0_i_385_1899)">
<path d="M15.1461 10.0329C14.3704 12.3496 15.3841 13.9311 16.3637 16.1693C17.1822 18.0394 19.2857 20.5037 19.2857 20.5037L22.0617 6.57512C22.0617 6.57512 19.4281 5.9205 17.9708 6.57512C16.3803 7.28959 15.6998 8.37951 15.1461 10.0329Z" fill="#64A0C2"/>
</g>
<g filter="url(#filter1_i_385_1899)">
<path d="M52.5841 43.2051C54.5983 41.8223 54.741 39.9492 55.3063 37.5724C55.7787 35.5864 55.5826 32.3523 55.5826 32.3523L44.9805 41.8026C44.9805 41.8026 46.6892 43.9108 48.247 44.2655C49.9471 44.6525 51.1466 44.192 52.5841 43.2051Z" fill="#6FB4DD"/>
</g>
<g filter="url(#filter2_i_385_1899)">
<path d="M40.3114 55.6724C42.3256 54.2896 42.4683 52.4165 43.0336 50.0397C43.5059 48.0537 43.3099 44.8196 43.3099 44.8196L32.7078 54.2698C32.7078 54.2698 34.4165 56.3781 35.9743 56.7327C37.6744 57.1198 38.8739 56.6592 40.3114 55.6724Z" fill="#63A197"/>
</g>
<path fill-rule="evenodd" clip-rule="evenodd" d="M1.88348e-05 30.033C6.27936e-06 30.0216 0 30.0103 0 29.999C0 21.6379 3.42044 14.0757 8.93838 8.63525L29.9996 30.0332L1.88348e-05 30.033Z" fill="#DBB77E"/>
<ellipse cx="29.9514" cy="17.1435" rx="8.81493" ry="8.47403" fill="#1B5982"/>
<path fill-rule="evenodd" clip-rule="evenodd" d="M41.3962 22.9869C41.3962 22.9869 45.341 23.8635 46.6559 25.7141C47.7113 27.1994 47.5326 29.9999 47.5326 29.9999H51.6235C51.6234 25.3198 47.6769 21.5259 42.8085 21.5259C41.233 21.5259 39.754 21.9232 38.4741 22.6194V22.9869H41.3962Z" fill="#ECB7B4"/>
<path d="M44.4643 26.0067C44.3472 26.8433 43.1494 27.9061 43.1494 27.9061L43.3442 30.0002H46.3637C46.3637 30.0002 46.6234 28.8783 46.6072 28.1496C46.5882 27.2956 46.5625 26.7647 46.1689 26.0067C45.735 25.1713 45.2883 24.7575 44.4643 24.3022C42.6137 23.2794 40.3247 22.208 40.3247 22.208V23.2794C40.3247 23.2794 44.7328 24.0895 44.4643 26.0067Z" fill="#EECBC0"/>
<path fill-rule="evenodd" clip-rule="evenodd" d="M30 8.66895V13.8313C30 13.8313 33.192 14.856 34.8214 16.1689C36.1279 17.2216 37.2495 19.1201 37.9944 20.6155C38.4903 19.5557 38.7662 18.3803 38.7662 17.1428C38.7662 12.4784 34.8459 8.69415 30 8.66895Z" fill="#0F4665"/>
<ellipse cx="29.9514" cy="43.4415" rx="8.81493" ry="8.47403" transform="rotate(180 29.9514 43.4415)" fill="#246896"/>
<path fill-rule="evenodd" clip-rule="evenodd" d="M30 51.9154V46.7043C30 46.7043 26.7106 45.7283 25.0812 44.4154C23.7748 43.3627 22.6531 41.4642 21.9082 39.9688C21.4123 41.0286 21.1364 42.2041 21.1364 43.4415C21.1364 48.1216 25.083 51.9155 29.9513 51.9155C29.9676 51.9155 29.9838 51.9155 30 51.9154Z" fill="#0F4665"/>
<rect x="22.6948" y="41.2983" width="7.30519" height="6.13636" fill="#1B5D86"/>
<path fill-rule="evenodd" clip-rule="evenodd" d="M30 51.9154V46.7043C30 46.7043 26.7106 45.7283 25.0812 44.4154C23.7747 43.3627 22.6531 41.4642 21.9082 39.9688C21.4123 41.0286 21.1364 42.2041 21.1364 43.4415C21.1364 48.1216 25.0829 51.9155 29.9513 51.9155C29.9675 51.9155 29.9838 51.9155 30 51.9154Z" fill="#0F4665"/>
<path fill-rule="evenodd" clip-rule="evenodd" d="M30.0001 48.0687C30.0001 48.0687 32.6358 48.2251 34.3345 47.4355C36.6035 46.3809 37.8659 43.4715 38.5032 41.3776C38.6751 42.0381 38.7664 42.7294 38.7664 43.4411C38.7664 48.1056 34.8461 51.8898 30.0001 51.915V48.0687Z" fill="#0E4664"/>
<ellipse cx="8.81493" cy="8.47403" rx="8.81493" ry="8.47403" transform="matrix(0 1 1 0 8.23047 21.3794)" fill="#AD414B"/>
<path fill-rule="evenodd" clip-rule="evenodd" d="M8.2306 30.146H13.4415C13.4415 30.146 14.4175 33.4354 15.7305 35.0648C16.7833 36.3714 18.6822 37.4932 20.1777 38.2382C19.1178 38.7342 17.9421 39.0102 16.7045 39.0102C12.0244 39.0102 8.23047 35.0636 8.23047 30.1953C8.23047 30.1788 8.23051 30.1624 8.2306 30.146Z" fill="#0F4665"/>
<rect width="7.30519" height="6.13636" transform="matrix(0 -1 -1 0 18.8467 37.4507)" fill="#1B5D86"/>
<path fill-rule="evenodd" clip-rule="evenodd" d="M8.23084 30.1484H13.4418C13.4418 30.1484 14.4178 33.4379 15.7307 35.0673C16.7836 36.3739 18.6825 37.4957 20.178 38.2406C19.1181 38.7367 17.9424 39.0127 16.7047 39.0127C12.0247 39.0127 8.23071 35.0661 8.23071 30.1977C8.23071 30.1813 8.23076 30.1649 8.23084 30.1484Z" fill="#0F4665"/>
<rect x="40.9736" y="37.3042" width="7.30519" height="6.13636" transform="rotate(-90 40.9736 37.3042)" fill="#1B5D86"/>
<path fill-rule="evenodd" clip-rule="evenodd" d="M51.5895 30H46.3786C46.3786 30 45.4025 33.2894 44.0896 34.9188C43.0368 36.2254 41.1378 37.3473 39.6423 38.0922C40.7023 38.5882 41.8779 38.8642 43.1156 38.8642C47.7956 38.8642 51.5896 34.9176 51.5896 30.0493C51.5896 30.0328 51.5896 30.0164 51.5895 30Z" fill="#0F4665"/>
<circle cx="29.9999" cy="29.9992" r="13.4416" fill="#FAEEDF"/>
<path d="M21.4285 38.8258V37.0502H22.328C22.4829 37.0502 22.6166 37.0942 22.7278 37.1809C22.8376 37.2676 22.8939 37.3751 22.8939 37.5032C22.8939 37.5757 22.8728 37.6455 22.8306 37.7102C22.7884 37.7762 22.7278 37.828 22.6518 37.8668C22.756 37.9044 22.8376 37.9626 22.8967 38.0428C22.9559 38.1231 22.9854 38.2163 22.9854 38.3198C22.9854 38.4725 22.9235 38.5941 22.8024 38.6873C22.68 38.7805 22.5195 38.8258 22.3224 38.8258H21.4285ZM21.9761 37.7206H22.1844C22.2295 37.7206 22.2689 37.7064 22.3027 37.6766C22.3351 37.6481 22.352 37.6132 22.352 37.5744C22.352 37.5329 22.3351 37.498 22.3041 37.4721C22.2717 37.4462 22.2323 37.432 22.1844 37.432H21.9761V37.7206ZM21.9761 38.444H22.2337C22.29 38.444 22.3393 38.4272 22.3787 38.391C22.4181 38.356 22.4378 38.3133 22.4378 38.2641C22.4378 38.2124 22.4181 38.1671 22.3801 38.1308C22.3407 38.0946 22.2928 38.0752 22.2337 38.0752H21.9761V38.444Z" fill="#0F4665"/>
<path d="M24.6508 38.8258L24.5269 38.5851H23.7597L23.6358 38.8258H23.0432L24.0286 37.0373H24.2595L25.2449 38.8258H24.6508ZM23.9483 38.2137H24.3397L24.144 37.8319L23.9483 38.2137Z" fill="#0F4665"/>
<path d="M25.9924 38.3858H26.7878V38.8258H25.418V37.0502H25.9924V38.3858Z" fill="#0F4665"/>
<path d="M28.2842 37.0502V37.4902H27.7225V38.8258H27.1482V37.4902H26.5865V37.0502H28.2842Z" fill="#0F4665"/>
<path d="M28.5432 38.8258V37.0502H29.1176V38.8258H28.5432Z" fill="#0F4665"/>
<path d="M31.5277 38.1231C31.4756 38.3353 31.3517 38.5126 31.1574 38.6524C30.9617 38.7934 30.7365 38.8633 30.4831 38.8633C30.1903 38.8633 29.9411 38.7727 29.7328 38.5916C29.5244 38.4104 29.4203 38.193 29.4203 37.938C29.4203 37.6844 29.5244 37.4656 29.7328 37.2845C29.9411 37.1033 30.1903 37.0127 30.4831 37.0127C30.7365 37.0127 30.9603 37.0839 31.156 37.2236C31.3503 37.3647 31.4742 37.5407 31.5248 37.753H30.9308C30.89 37.674 30.8294 37.6106 30.7506 37.5614C30.6703 37.5122 30.5817 37.4876 30.4831 37.4876C30.348 37.4876 30.2325 37.5317 30.1368 37.6197C30.0411 37.7077 29.9932 37.8138 29.9932 37.938C29.9932 38.0635 30.0411 38.1697 30.1368 38.2577C30.2325 38.3457 30.348 38.3884 30.4831 38.3884C30.5802 38.3884 30.6689 38.3651 30.7506 38.3159C30.8322 38.2667 30.8914 38.2033 30.9308 38.1231H31.5277Z" fill="#0F4665"/>
<path d="M33.8584 37.0127H34.4316V38.825H33.8584V38.1355H33.1598V38.825H32.5852V37.0127H33.1598V37.6864H33.8584V37.0127Z" fill="#0F4665"/>
<path d="M35.7442 38.8633C35.4907 38.8633 35.2724 38.7841 35.0921 38.6256C34.9118 38.4671 34.8217 38.2755 34.8217 38.0536V37.0127H35.3963V38.0536C35.3963 38.1434 35.4301 38.22 35.4977 38.2834C35.5653 38.3468 35.6484 38.3785 35.7442 38.3785C35.8399 38.3785 35.923 38.3482 35.9906 38.2848C36.0582 38.2214 36.0934 38.1447 36.0934 38.0536V37.0127H36.668V38.0536C36.668 38.2755 36.5765 38.4671 36.3962 38.6256C36.216 38.7841 35.9977 38.8633 35.7442 38.8633Z" fill="#0F4665"/>
<path d="M37.0553 38.825V37.0127H37.9553C38.1102 37.0127 38.244 37.0576 38.3553 37.1461C38.4651 37.2346 38.5215 37.3443 38.5215 37.475C38.5215 37.549 38.5003 37.6203 38.4581 37.6864C38.4158 37.7537 38.3553 37.8066 38.2792 37.8462C38.3834 37.8845 38.4651 37.944 38.5243 38.0259C38.5834 38.1078 38.613 38.2029 38.613 38.3085C38.613 38.4644 38.551 38.5886 38.4299 38.6837C38.3074 38.7788 38.1468 38.825 37.9497 38.825H37.0553ZM37.6032 37.6969H37.8116C37.8567 37.6969 37.8961 37.6824 37.9299 37.652C37.9623 37.623 37.9792 37.5873 37.9792 37.5477C37.9792 37.5054 37.9623 37.4697 37.9313 37.4433C37.899 37.4169 37.8595 37.4024 37.8116 37.4024H37.6032V37.6969ZM37.6032 38.4353H37.8609C37.9173 38.4353 37.9666 38.4182 38.006 38.3812C38.0454 38.3455 38.0651 38.3019 38.0651 38.2517C38.0651 38.1989 38.0454 38.1527 38.0074 38.1157C37.968 38.0787 37.9201 38.0589 37.8609 38.0589H37.6032V38.4353Z" fill="#0F4665"/>
<path d="M40.2759 34.3346V36.3314H19.2856V34.3346V32.7762H19.4804V31.9969H19.7727V31.3151L19.9675 30.6333L20.1623 31.3151V31.9969H20.4545V32.7762H20.7467V34.3346H40.2759Z" fill="#0F4665"/>
<path d="M23.5714 34.3841H22.4026V31.1698H22.6948V29.6114L22.9383 29.4166V29.0757L23.1331 29.4166L23.3279 29.8549V31.1698H23.5714V34.3841Z" fill="#24658B"/>
<path d="M26.7858 34.3836H25.5682V31.072H25.9578V29.3187L26.2013 29.0752L26.4449 29.3187V31.072H26.7858V34.3836Z" fill="#24688F"/>
<path d="M23.328 28.1499C23.1899 28.0832 22.9871 27.9551 22.9871 27.9551V28.5151C22.9871 28.5151 23.3799 28.461 23.5715 28.5882C23.7562 28.7109 23.8637 29.0752 23.8637 29.0752C23.8637 29.0752 24.0469 28.5634 23.8637 28.3447C23.7207 28.174 23.5284 28.2467 23.328 28.1499Z" fill="#24688F"/>
<path d="M22.9871 29.27V28.5151M22.9871 28.5151V27.9551C22.9871 27.9551 23.1899 28.0832 23.328 28.1499C23.5284 28.2467 23.7207 28.174 23.8637 28.3447C24.0469 28.5634 23.8637 29.0752 23.8637 29.0752C23.8637 29.0752 23.7562 28.7109 23.5715 28.5882C23.3799 28.461 22.9871 28.5151 22.9871 28.5151ZM25.5682 34.3836H26.7858V31.072H26.4449V29.3187L26.2013 29.0752L25.9578 29.3187V31.072H25.5682V34.3836Z" stroke="#24688F" stroke-width="0.107412"/>
<path d="M26.7369 28.0522L26.2012 27.8574V28.4418C26.2012 28.4418 26.5364 28.2737 26.7369 28.3444C27.0176 28.4435 27.0778 28.7827 27.0778 28.7827C27.0778 28.7827 27.2114 28.5748 27.0778 28.3444C26.9898 28.1927 26.7369 28.0522 26.7369 28.0522Z" fill="#1F5F81"/>
<path d="M26.2012 29.0263V28.4418M26.2012 28.4418V27.8574L26.7369 28.0522C26.7369 28.0522 26.9898 28.1927 27.0778 28.3444C27.2114 28.5748 27.0778 28.7827 27.0778 28.7827C27.0778 28.7827 27.0176 28.4435 26.7369 28.3444C26.5364 28.2737 26.2012 28.4418 26.2012 28.4418Z" stroke="#1F5F81" stroke-width="0.107412"/>
<path d="M32.7274 29.6108L32.1917 29.416V30.0004C32.1917 30.0004 32.5268 29.8323 32.7274 29.903C33.0081 30.0021 33.0683 30.2926 33.0683 30.2926C33.0683 30.2926 33.2018 30.1334 33.0683 29.903C32.9803 29.7513 32.7274 29.6108 32.7274 29.6108Z" fill="#AD404B"/>
<path d="M32.1917 30.8284V30.0004M32.1917 30.0004V29.416L32.7274 29.6108C32.7274 29.6108 32.9803 29.7513 33.0683 29.903C33.2018 30.1334 33.0683 30.2926 33.0683 30.2926C33.0683 30.2926 33.0081 30.0021 32.7274 29.903C32.5268 29.8323 32.1917 30.0004 32.1917 30.0004Z" stroke="#AD404B" stroke-width="0.107412"/>
<path d="M31.4124 33.2142V34.3343H33.1169V33.2142H32.8734V32.5324L32.5325 32.1428V31.5584L32.3377 31.0714L32.1916 30.5356L31.9968 31.1688L31.8507 31.5584V32.1428L31.6072 32.5324V33.2142H31.4124Z" fill="#246890"/>
<path d="M34.5293 33.1654V34.3342H36.0877V33.1654L35.2111 28.9771L34.5293 33.1654Z" fill="#2C658C"/>
<path d="M37.7434 33.2137V34.3825H39.3018V33.2137L38.4252 29.0254L37.7434 33.2137Z" fill="#2C658C"/>
<path d="M29.659 20.552C29.5423 20.4602 29.4155 20.2598 29.4155 20.2598V21.2338H29.8538C30.025 21.2338 30.2922 21.4286 30.2922 21.4286C30.2922 21.4286 30.2951 20.9083 30.1947 20.7468C30.0772 20.5577 29.834 20.6896 29.659 20.552Z" fill="#DB8D91"/>
<path d="M29.4155 22.6461V21.2338M29.4155 21.2338V20.2598C29.4155 20.2598 29.5423 20.4602 29.659 20.552C29.834 20.6896 30.0772 20.5577 30.1947 20.7468C30.2951 20.9083 30.2922 21.4286 30.2922 21.4286C30.2922 21.4286 30.025 21.2338 29.8538 21.2338C29.6827 21.2338 29.4155 21.2338 29.4155 21.2338Z" stroke="#DB8D91" stroke-width="0.107412"/>
<path d="M30.5358 34.3337H28.4417L28.7339 23.7655H29.0748V22.5967L29.854 22.7915V23.7655H30.2923L30.5358 34.3337Z" fill="#0F4665"/>
<path d="M18.75 12.808C18.75 12.808 18.5634 11.6265 18.75 10.9086C18.8933 10.357 19.3831 9.59368 19.3831 9.59368M20.7955 7.25602C20.7955 7.25602 20.4188 7.56218 20.211 7.79173C19.8606 8.17894 19.4805 8.91186 19.4805 8.91186M21.4773 3.74952L24.3994 2.62939M11.3961 8.18134L12.4188 9.25277M12.9546 9.93459L13.7825 10.9086M37.5974 3.16511L38.3279 3.74952M38.5714 3.99303L39.7403 4.82095M40.5682 9.39887C40.5682 9.39887 41.1066 10.4051 41.2987 11.1034C41.4771 11.7518 41.5422 12.808 41.5422 12.808M41.737 13.5385V14.2203M47.6299 10.2755L47.1916 10.7138M49.1396 8.52225L48.0195 9.78849M50.4546 11.3956H50.9903M51.3799 11.6391H52.013M30.7792 10.9573L33.263 11.2495M31.461 15.3404C31.461 15.3404 32.2608 15.3545 32.7273 15.5352C33.0771 15.6708 33.5552 16.0223 33.5552 16.0223M27.9059 16.0223L29.0747 15.7787M25.0812 15.7787L25.4221 15.4378M26.1039 15.1456C26.1039 15.1456 26.9063 14.685 27.4675 14.5125C28.1103 14.3149 29.1721 14.269 29.1721 14.269M23.8636 13.2463L24.5942 12.6132M23.1818 14.1716L23.5227 13.8307M25.1786 12.2236C25.1786 12.2236 25.7134 11.8129 26.1039 11.6391C26.4834 11.4702 27.1266 11.3469 27.1266 11.3469M27.8085 11.1034L28.2955 11.006M19.4805 16.0223L19.7727 16.3145M41.737 18.4086L42.1753 18.1164M42.9059 17.7268L43.4903 17.2885M43.9286 17.0937H44.4643M49.1396 18.3112C49.1396 18.3112 49.6383 18.5084 49.9188 18.7008C50.2185 18.9064 50.6007 19.3339 50.6007 19.3339M51.2338 19.6261L51.6234 19.9671M52.0617 20.4054L52.4026 20.8437M53.8149 22.1586L53.9123 22.5482M54.0584 22.8891L54.3507 23.7171M53.3279 18.8469L54.0584 19.8697M56.0552 20.6976C56.0552 20.6976 56.6824 21.7884 56.9318 22.5482C57.1796 23.3031 57.3214 24.545 57.3214 24.545M47.8247 22.8891L48.1169 23.23M48.7987 23.7171C48.7987 23.7171 49.4686 24.3306 49.724 24.8372C49.9463 25.2781 50.0649 26.0547 50.0649 26.0547M44.6591 31.2658C44.6591 31.2658 44.6565 32.1173 44.4156 32.5807C44.2167 32.9633 43.6851 33.4086 43.6851 33.4086M47.3377 31.5093V32.0937M46.8507 33.2138C46.8507 33.2138 46.8655 33.5959 46.7533 33.7982C46.6422 33.9985 46.3149 34.1878 46.3149 34.1878M49.0422 32.6781C49.0422 32.6781 48.7313 33.9812 48.2143 34.6261C47.7385 35.2197 46.6559 35.795 46.6559 35.795M46.1688 36.0385L45.6818 36.1846M45 36.0385H44.6591M47.3377 37.3047C47.3377 37.3047 48.0338 37.3521 48.4091 37.1586C48.7082 37.0044 49.0422 36.5742 49.0422 36.5742M49.5292 36.3307C49.5292 36.3307 49.9307 36.2354 50.0649 36.0385C50.1847 35.8628 50.1623 35.5028 50.1623 35.5028M54.0097 42.321L55.0812 41.1521M55.3734 40.7138L56.1039 39.6424M49.1883 42.9541H49.6266M50.1623 42.9541L51.039 43.0515M43.6851 40.2755L44.2208 40.519M44.6591 40.7138L45.0974 40.8112M48.4091 46.3632L49.1883 46.9476M49.8701 47.3859L50.1623 47.6781M50.8929 48.0677L51.2338 48.3112M46.4123 49.6261L46.6559 50.2593M46.8994 50.8924L47.0455 51.4281M47.3377 52.0612L47.5325 52.5482M41.3474 53.9606L41.7857 53.571M38.0844 55.4703C38.0844 55.4703 39.0438 55.3412 39.5942 55.0807C40.0758 54.8527 40.7143 54.3015 40.7143 54.3015M34.9188 47.9216C34.9188 47.9216 35.4652 47.6725 35.6981 47.3859C35.8484 47.201 35.9903 46.8502 35.9903 46.8502M36.4773 46.1684L36.7208 45.5352M36.9156 45.0969L37.013 44.1716M32.5812 45.0969L33.0195 44.9021M33.0195 46.8502L33.6039 46.3632M30.1948 47.3859C30.1948 47.3859 30.9795 47.4984 31.461 47.3859C31.8672 47.2909 32.4351 46.9476 32.4351 46.9476M30.1948 45.6813C30.1948 45.6813 30.6506 45.7581 30.9253 45.6813C31.1548 45.6172 31.461 45.3891 31.461 45.3891M28.9286 44.5612H29.5617M24.8864 43.295C24.8864 43.295 25.1853 43.9679 25.5682 44.1716C25.858 44.3258 26.3961 44.3177 26.3961 44.3177M23.0357 43.6846C23.0357 43.6846 23.0205 44.1222 23.1331 44.3664C23.2516 44.6231 23.6201 44.9021 23.6201 44.9021M23.8636 45.5352C23.8636 45.5352 24.2822 46.4022 24.6916 46.8502C25.1793 47.3839 26.2013 47.9216 26.2013 47.9216M30.1948 49.3339C30.1948 49.3339 31.1267 49.4508 31.7046 49.3339C32.2481 49.2241 33.0195 48.7982 33.0195 48.7982M13.1981 49.6261L12.9059 50.8924M12.4675 51.7203V52.5482M20.0649 47.9216L20.2598 48.506M20.8442 50.2593L21.8669 51.4281M22.2565 51.7203L23.1331 52.0612M18.6526 53.571L20.8442 54.6424M21.8669 55.0807L23.0357 55.4703M3.99352 39.6424L6.9156 42.9541M9.00975 48.0677L9.49677 47.6781M10.1299 47.3859L10.5195 46.9476M11.25 46.8502L12.0292 46.1684M18.0682 41.1521L18.6526 40.7138M19.1396 40.2755L19.6266 39.6424M9.49677 31.5093C9.49677 31.5093 9.50081 32.3052 9.74027 32.7268C9.86055 32.9386 10.1299 33.2138 10.1299 33.2138M10.5195 33.7982C10.5195 33.7982 11.0444 35.1997 11.737 35.795C12.2274 36.2165 13.1981 36.5742 13.1981 36.5742M4.87014 36.5742L5.55196 37.743M5.94157 38.3274L6.9156 39.058M2.62988 33.7982V34.6261M2.62988 35.5028L3.2143 36.5742M15.8279 31.5093L16.3636 32.7268M15.8279 27.4671L15.487 29.269M15.487 24.8372C15.487 24.8372 14.4729 26.3642 14.1234 27.4671C13.8721 28.26 13.7338 29.5612 13.7338 29.5612M14.6591 23.23C14.6591 23.23 13.6393 23.6791 13.1981 24.2041C12.6982 24.7989 12.4675 26.0547 12.4675 26.0547M12.0292 25.1294C12.0292 25.1294 11.4681 26.318 11.25 27.1261C10.9998 28.0532 10.9091 29.5612 10.9091 29.5612M16.3636 22.1586L15.8279 22.5482M17.776 22.5482H18.6526M16.3636 23.7171L15.8279 24.2041M7.93832 11.3956H9.00975M9.49677 10.9086H10.5195M5.94157 18.1164C5.94157 18.1164 6.42544 17.2115 6.9156 16.8015C7.49028 16.3207 8.66884 16.0223 8.66884 16.0223M7.45131 19.6261C7.45131 19.6261 8.64089 18.7714 9.49677 18.4086C10.5756 17.9513 12.4188 17.7268 12.4188 17.7268M13.1981 17.2885H14.1234M4.43183 24.2041L4.87014 22.5482M5.16235 22.1586C5.46665 21.6451 5.94157 20.8437 5.94157 20.8437M4.43183 19.6261L5.16235 19.3339" stroke="#D4DCDD" stroke-width="0.214824"/>
<path d="M66 35.2769V24.7231H71.3468C72.2673 24.7231 73.0622 24.9846 73.7232 25.5C74.3759 26.0154 74.7106 26.6538 74.7106 27.4154C74.7106 27.8462 74.5851 28.2615 74.334 28.6462C74.083 29.0385 73.7232 29.3462 73.2714 29.5769C73.8906 29.8 74.3759 30.1462 74.7273 30.6231C75.0788 31.1 75.2545 31.6538 75.2545 32.2692C75.2545 33.1769 74.8863 33.9 74.1667 34.4538C73.4387 35.0077 72.4848 35.2769 71.3134 35.2769H66ZM69.255 28.7077H70.4934C70.7611 28.7077 70.9954 28.6231 71.1962 28.4462C71.3887 28.2769 71.4891 28.0692 71.4891 27.8385C71.4891 27.5923 71.3887 27.3846 71.2046 27.2308C71.0121 27.0769 70.7779 26.9923 70.4934 26.9923H69.255V28.7077ZM69.255 33.0077H70.7862C71.1209 33.0077 71.4138 32.9077 71.6481 32.6923C71.8824 32.4846 71.9995 32.2308 71.9995 31.9385C71.9995 31.6308 71.8824 31.3615 71.6564 31.1462C71.4222 30.9308 71.1377 30.8154 70.7862 30.8154H69.255V33.0077Z" fill="#0F4665"/>
<path d="M85.1532 35.2769L84.4169 33.8462H79.8566L79.1203 35.2769H75.5975L81.4548 24.6462H82.8271L88.6843 35.2769H85.1532ZM80.9779 31.6385H83.304L82.1409 29.3692L80.9779 31.6385Z" fill="#0F4665"/>
<path d="M93.1275 32.6615H97.8551V35.2769H89.7135V24.7231H93.1275V32.6615Z" fill="#0F4665"/>
<path d="M106.75 24.7231V27.3385H103.411V35.2769H99.9972V27.3385H96.6586V24.7231H106.75Z" fill="#0F4665"/>
<path d="M108.289 35.2769V24.7231H111.703V35.2769H108.289Z" fill="#0F4665"/>
<path d="M126.029 31.1C125.719 32.3615 124.983 33.4154 123.828 34.2462C122.665 35.0846 121.326 35.5 119.82 35.5C118.079 35.5 116.598 34.9615 115.36 33.8846C114.122 32.8077 113.502 31.5154 113.502 30C113.502 28.4923 114.122 27.1923 115.36 26.1154C116.598 25.0385 118.079 24.5 119.82 24.5C121.326 24.5 122.656 24.9231 123.82 25.7538C124.974 26.5923 125.711 27.6385 126.012 28.9H122.481C122.238 28.4308 121.878 28.0538 121.41 27.7615C120.933 27.4692 120.406 27.3231 119.82 27.3231C119.017 27.3231 118.33 27.5846 117.761 28.1077C117.192 28.6308 116.908 29.2615 116.908 30C116.908 30.7462 117.192 31.3769 117.761 31.9C118.33 32.4231 119.017 32.6769 119.82 32.6769C120.397 32.6769 120.924 32.5385 121.41 32.2462C121.895 31.9538 122.246 31.5769 122.481 31.1H126.029Z" fill="#0F4665"/>
<path d="M137.596 24.5H141.003V35.2723H137.596V31.1738H133.444V35.2723H130.029V24.5H133.444V28.5043H137.596V24.5Z" fill="#0F4665"/>
<path d="M148.805 35.5C147.298 35.5 146.001 35.0289 144.929 34.0867C143.858 33.1445 143.322 32.0061 143.322 30.687V24.5H146.737V30.687C146.737 31.2209 146.938 31.6763 147.34 32.0532C147.742 32.43 148.236 32.6185 148.805 32.6185C149.374 32.6185 149.868 32.4379 150.27 32.061C150.672 31.6842 150.881 31.2288 150.881 30.687V24.5H154.297V30.687C154.297 32.0061 153.752 33.1445 152.681 34.0867C151.609 35.0289 150.312 35.5 148.805 35.5Z" fill="#0F4665"/>
<path d="M156.599 35.2723V24.5H161.948C162.869 24.5 163.664 24.767 164.325 25.293C164.978 25.8191 165.313 26.4707 165.313 27.248C165.313 27.6877 165.187 28.1117 164.936 28.5043C164.685 28.9047 164.325 29.2188 163.873 29.4543C164.493 29.682 164.978 30.0353 165.33 30.5221C165.681 31.0089 165.857 31.5742 165.857 32.2024C165.857 33.1288 165.489 33.8669 164.769 34.4322C164.041 34.9975 163.086 35.2723 161.914 35.2723H156.599ZM159.855 28.5671H161.094C161.362 28.5671 161.596 28.4807 161.797 28.3001C161.99 28.1274 162.09 27.9154 162.09 27.6799C162.09 27.4286 161.99 27.2166 161.805 27.0596C161.613 26.9026 161.379 26.8162 161.094 26.8162H159.855V28.5671ZM159.855 32.9561H161.387C161.722 32.9561 162.015 32.854 162.249 32.6342C162.484 32.4222 162.601 32.1631 162.601 31.8647C162.601 31.5507 162.484 31.2759 162.258 31.056C162.023 30.8362 161.739 30.7184 161.387 30.7184H159.855V32.9561Z" fill="#0F4665"/>
<defs>
<filter id="filter0_i_385_1899" x="13.6898" y="4.24335" width="8.37196" height="16.2606" filterUnits="userSpaceOnUse" color-interpolation-filters="sRGB">
<feFlood flood-opacity="0" result="BackgroundImageFix"/>
<feBlend mode="normal" in="SourceGraphic" in2="BackgroundImageFix" result="shape"/>
<feColorMatrix in="SourceAlpha" type="matrix" values="0 0 0 0 0 0 0 0 0 0 0 0 0 0 0 0 0 0 127 0" result="hardAlpha"/>
<feOffset dx="-1.18153" dy="-2.04083"/>
<feGaussianBlur stdDeviation="1.28895"/>
<feComposite in2="hardAlpha" operator="arithmetic" k2="-1" k3="1"/>
<feColorMatrix type="matrix" values="0 0 0 0 0.482353 0 0 0 0 0.682353 0 0 0 0 0.8 0 0 0 1 0"/>
<feBlend mode="normal" in2="shape" result="effect1_innerShadow_385_1899"/>
</filter>
<filter id="filter1_i_385_1899" x="44.9805" y="32.3525" width="14.0798" height="14.0906" filterUnits="userSpaceOnUse" color-interpolation-filters="sRGB">
<feFlood flood-opacity="0" result="BackgroundImageFix"/>
<feBlend mode="normal" in="SourceGraphic" in2="BackgroundImageFix" result="shape"/>
<feColorMatrix in="SourceAlpha" type="matrix" values="0 0 0 0 0 0 0 0 0 0 0 0 0 0 0 0 0 0 127 0" result="hardAlpha"/>
<feOffset dx="4.72613" dy="2.04083"/>
<feGaussianBlur stdDeviation="1.71859"/>
<feComposite in2="hardAlpha" operator="arithmetic" k2="-1" k3="1"/>
<feColorMatrix type="matrix" values="0 0 0 0 0.517647 0 0 0 0 0.760784 0 0 0 0 0.905882 0 0 0 1 0"/>
<feBlend mode="normal" in2="shape" result="effect1_innerShadow_385_1899"/>
</filter>
<filter id="filter2_i_385_1899" x="32.7078" y="44.8198" width="14.0798" height="14.0906" filterUnits="userSpaceOnUse" color-interpolation-filters="sRGB">
<feFlood flood-opacity="0" result="BackgroundImageFix"/>
<feBlend mode="normal" in="SourceGraphic" in2="BackgroundImageFix" result="shape"/>
<feColorMatrix in="SourceAlpha" type="matrix" values="0 0 0 0 0 0 0 0 0 0 0 0 0 0 0 0 0 0 127 0" result="hardAlpha"/>
<feOffset dx="4.72613" dy="2.04083"/>
<feGaussianBlur stdDeviation="1.71859"/>
<feComposite in2="hardAlpha" operator="arithmetic" k2="-1" k3="1"/>
<feColorMatrix type="matrix" values="0 0 0 0 0.415686 0 0 0 0 0.654902 0 0 0 0 0.615686 0 0 0 1 0"/>
<feBlend mode="normal" in2="shape" result="effect1_innerShadow_385_1899"/>
</filter>
</defs>
</svg>
