<svg width="21" height="20" viewBox="0 0 21 20" fill="none" xmlns="http://www.w3.org/2000/svg">
<g clip-path="url(#clip0_392_3178)">
<path d="M9.12812 15.684C10.6463 15.6837 12.1206 15.1755 13.3165 14.2403L17.0764 18L18.2858 16.7907L14.5259 13.031C15.4616 11.8351 15.9701 10.3604 15.9705 8.84199C15.9705 5.06949 12.9008 2 9.12812 2C5.35542 2 2.28577 5.06949 2.28577 8.84199C2.28577 12.6145 5.35542 15.684 9.12812 15.684ZM9.12812 3.7105C11.9583 3.7105 14.2599 6.01197 14.2599 8.84199C14.2599 11.672 11.9583 13.9735 9.12812 13.9735C6.29795 13.9735 3.99636 11.672 3.99636 8.84199C3.99636 6.01197 6.29795 3.7105 9.12812 3.7105Z" fill="#ABA7AF"/>
<path d="M10.3358 7.6327C10.66 7.95769 10.8387 8.38703 10.8387 8.84202H12.5493C12.5501 8.39252 12.4617 7.94734 12.2894 7.53219C12.117 7.11705 11.8641 6.74018 11.5452 6.42337C10.2503 5.13024 8.00512 5.13024 6.71106 6.42337L7.91874 7.63441C8.56876 6.98613 9.6892 6.98784 10.3358 7.6327Z" fill="#ABA7AF"/>
</g>
<defs>
<clipPath id="clip0_392_3178">
<rect width="20" height="20" fill="white" transform="translate(0.285767)"/>
</clipPath>
</defs>
</svg>
